<svg width="148" height="103" viewBox="0 0 148 103" fill="none" xmlns="http://www.w3.org/2000/svg">
<g id="logo" clip-path="url(#clip0_4_85)">
<path id="Vector" d="M11.3851 0.789429H135.439V95.6315H11.3851V0.789429Z" stroke="black" stroke-width="6"/>
<path id="Vector_2" d="M25.2085 32.6359C22.8673 32.6359 20.754 32.171 18.869 31.2412C16.9838 30.3114 15.3571 29.0561 13.9889 27.4754C12.6206 25.8637 11.5564 24.066 10.7963 22.0824C10.0666 20.0678 9.7017 18.0067 9.7017 15.8991C9.7017 13.6985 10.097 11.6064 10.8875 9.62276C11.678 7.60811 12.7726 5.82598 14.1713 4.27627C15.57 2.69556 17.2118 1.4558 19.097 0.556968C21.0126 -0.372856 23.0801 -0.837769 25.2997 -0.837769C27.6105 -0.837769 29.7085 -0.357356 31.5936 0.603459C33.5092 1.56428 35.1358 2.85053 36.4737 4.46223C37.8419 6.07392 38.8909 7.87162 39.6207 9.85521C40.3808 11.8388 40.7609 13.869 40.7609 15.9456C40.7609 18.1462 40.3655 20.2537 39.5751 22.2684C38.8149 24.252 37.7355 26.0342 36.3369 27.6149C34.9382 29.1646 33.2811 30.3888 31.3656 31.2877C29.4804 32.1865 27.4281 32.6359 25.2085 32.6359ZM14.9011 15.8991C14.9011 17.4488 15.1442 18.952 15.6308 20.4087C16.1173 21.8655 16.8014 23.1672 17.6832 24.314C18.5953 25.4298 19.6899 26.3131 20.9669 26.964C22.244 27.6149 23.673 27.9403 25.2541 27.9403C26.896 27.9403 28.3555 27.5993 29.6325 26.9175C30.9095 26.2357 31.9736 25.3213 32.8251 24.1745C33.7067 22.9967 34.3757 21.6949 34.8318 20.2692C35.2879 18.8125 35.5159 17.3558 35.5159 15.8991C35.5159 14.3493 35.2727 12.8616 34.7862 11.4359C34.3301 9.97916 33.646 8.69293 32.7338 7.57714C31.8217 6.43035 30.7271 5.53153 29.4501 4.88065C28.2034 4.22978 26.8048 3.90434 25.2541 3.90434C23.6122 3.90434 22.1528 4.24528 20.8757 4.92714C19.5987 5.60901 18.5192 6.52334 17.6376 7.67013C16.7558 8.81688 16.0716 10.1032 15.5852 11.5289C15.1291 12.9546 14.9011 14.4114 14.9011 15.8991ZM87.2333 -0.605312V32.4035H82.0796V17.8517H65.7519V32.4035H60.6438V-0.605312H65.7519V13.2026H82.0796V-0.605312H87.2333ZM122.587 32.6359C120.246 32.6359 118.133 32.171 116.247 31.2412C114.363 30.3114 112.735 29.0561 111.367 27.4754C109.999 25.8637 108.935 24.066 108.175 22.0824C107.445 20.0678 107.08 18.0067 107.08 15.8991C107.08 13.6985 107.476 11.6064 108.266 9.62276C109.057 7.60811 110.151 5.82598 111.55 4.27627C112.949 2.69556 114.591 1.4558 116.475 0.556968C118.391 -0.372856 120.459 -0.837769 122.678 -0.837769C124.989 -0.837769 127.087 -0.357356 128.972 0.603459C130.888 1.56428 132.515 2.85053 133.852 4.46223C135.22 6.07392 136.269 7.87162 136.999 9.85521C137.76 11.8388 138.139 13.869 138.139 15.9456C138.139 18.1462 137.744 20.2537 136.953 22.2684C136.194 24.252 135.114 26.0342 133.715 27.6149C132.317 29.1646 130.659 30.3888 128.744 31.2877C126.859 32.1865 124.807 32.6359 122.587 32.6359ZM112.279 15.8991C112.279 17.4488 112.523 18.952 113.009 20.4087C113.496 21.8655 114.18 23.1672 115.061 24.314C115.974 25.4298 117.068 26.3131 118.345 26.964C119.622 27.6149 121.052 27.9403 122.632 27.9403C124.274 27.9403 125.734 27.5993 127.011 26.9175C128.288 26.2357 129.352 25.3213 130.203 24.1745C131.085 22.9967 131.754 21.6949 132.21 20.2692C132.666 18.8125 132.894 17.3558 132.894 15.8991C132.894 14.3493 132.652 12.8616 132.165 11.4359C131.708 9.97916 131.024 8.69293 130.112 7.57714C129.2 6.43035 128.105 5.53153 126.828 4.88065C125.582 4.22978 124.183 3.90434 122.632 3.90434C120.991 3.90434 119.531 4.24528 118.254 4.92714C116.977 5.60901 115.898 6.52334 115.016 7.67013C114.135 8.81688 113.451 10.1032 112.964 11.5289C112.507 12.9546 112.279 14.4114 112.279 15.8991ZM35.7535 36.5412H24.99V64.9473H19.8363V36.5412H9.02723V31.9385H35.7535V36.5412ZM67.324 60.3447V64.9473H45.1129V31.9385H66.9136V36.5412H50.221V45.9324H64.6788V50.2561H50.221V60.3447H67.324ZM77.656 64.9473V31.9385H100.415V36.4947H82.7641V45.7464H92.2506C95.8385 45.7464 98.5295 46.6142 100.324 48.3499C102.117 50.0546 103.015 52.3172 103.015 55.1377C103.015 57.0283 102.619 58.7175 101.829 60.2052C101.068 61.662 99.9132 62.8242 98.3625 63.6921C96.842 64.5289 94.9111 64.9473 92.5699 64.9473H77.656ZM82.7641 60.3912H91.8857C93.2844 60.3912 94.4094 60.1278 95.2607 59.6008C96.1425 59.0739 96.7663 58.4076 97.1311 57.6017C97.5261 56.7649 97.724 55.8971 97.724 54.9982C97.724 54.0993 97.5562 53.2625 97.2223 52.4877C96.8876 51.7128 96.2792 51.0929 95.3976 50.628C94.5462 50.1321 93.3452 49.8842 91.7945 49.8842H82.7641V60.3912ZM135.036 60.3447V64.9473H112.825V31.9385H134.626V36.5412H117.933V45.9324H132.391V50.2561H117.933V60.3447H135.036ZM35.6399 64.4824V97.4912H30.4862V82.9394H14.1585V97.4912H9.05039V64.4824H14.1585V78.2903H30.4862V64.4824H35.6399ZM53.2065 64.4824H58.041L70.6288 97.4912H65.247L61.8264 88.5184H49.3298L45.9548 97.4912H40.5274L53.2065 64.4824ZM60.8231 84.6596L55.6237 70.2008L50.242 84.6596H60.8231ZM70.4375 103.814V92.8885H71.9882C72.8395 92.8885 73.5692 92.5473 74.1774 91.8657C74.8159 91.1842 75.348 90.0991 75.7737 88.6114C76.2297 87.1236 76.5794 85.171 76.8227 82.7535C77.0963 80.305 77.2939 77.314 77.4156 73.7806L77.6436 64.4824H98.4866V92.8885H102.591V103.814H98.0761V97.4912H74.9527V103.814H70.4375ZM78.4645 92.8885H93.3328V69.085H82.3868L82.25 74.478C82.1588 78.0423 81.9764 81.0642 81.7027 83.5438C81.4291 85.9923 81.0337 87.976 80.5169 89.4947C80 91.0131 79.3159 92.1447 78.4645 92.8885ZM122.406 97.7236C120.065 97.7236 117.952 97.2587 116.067 96.3289C114.181 95.3991 112.555 94.1438 111.187 92.5631C109.818 90.9514 108.754 89.1537 107.994 87.1701C107.264 85.1555 106.899 83.0944 106.899 80.9868C106.899 78.7862 107.294 76.6941 108.085 74.7105C108.876 72.6958 109.971 70.9137 111.369 69.364C112.767 67.7833 114.409 66.5435 116.295 65.6447C118.21 64.7149 120.278 64.2499 122.497 64.2499C124.808 64.2499 126.906 64.7304 128.791 65.6912C130.707 66.652 132.333 67.9383 133.671 69.5499C135.04 71.1616 136.089 72.9593 136.818 74.9429C137.578 76.9265 137.959 78.9567 137.959 81.0333C137.959 83.2339 137.564 85.3414 136.773 87.3561C136.013 89.3397 134.933 91.1219 133.535 92.7026C132.136 94.2526 130.479 95.4762 128.563 96.3754C126.678 97.2745 124.626 97.7236 122.406 97.7236ZM112.099 80.9868C112.099 82.5365 112.342 84.0397 112.829 85.4964C113.315 86.9532 113.999 88.255 114.881 89.4017C115.793 90.5175 116.888 91.4008 118.165 92.0517C119.442 92.7026 120.871 93.028 122.452 93.028C124.094 93.028 125.553 92.6868 126.83 92.0052C128.107 91.3236 129.172 90.409 130.023 89.2622C130.905 88.0844 131.573 86.7827 132.03 85.357C132.486 83.9002 132.714 82.4435 132.714 80.9868C132.714 79.437 132.47 77.9493 131.984 76.5236C131.528 75.0669 130.844 73.7807 129.932 72.6649C129.019 71.5181 127.925 70.6192 126.648 69.9684C125.401 69.3175 124.002 68.9921 122.452 68.9921C120.81 68.9921 119.35 69.333 118.073 70.0149C116.796 70.6967 115.717 71.6111 114.835 72.7578C113.953 73.9046 113.269 75.1909 112.783 76.6166C112.327 78.0423 112.099 79.4991 112.099 80.9868Z" fill="black"/>
</g>
<defs>
<clipPath id="clip0_4_85">
<rect width="148" height="105" fill="white" transform="translate(0 -2)"/>
</clipPath>
</defs>
</svg>
