<svg width="237" height="48" viewBox="0 0 237 48" fill="none" xmlns="http://www.w3.org/2000/svg">
<g id="socials">
<g id="Pinterest">
<circle id="Ellipse 6" cx="213" cy="24" r="23.5" stroke="black"/>
<path id="pinterest" d="M221.736 18.4777C221.407 17.3515 220.878 16.4033 220.12 15.5793C219.378 14.7733 218.525 14.1621 217.51 13.7107C216.355 13.1978 215.016 12.9486 213.737 13.0088C213.27 13.0305 212.814 13.0553 212.367 13.1209C211.108 13.3034 210 13.6837 208.978 14.2838C207.674 15.0501 206.657 16.0928 205.953 17.383C205.588 18.0544 205.228 19.2383 205.075 20.0112C204.894 20.9228 205.053 22.5039 205.417 23.3956C205.87 24.507 206.244 24.9995 207.154 25.687C207.159 25.6911 207.722 26.1018 208.097 26.0956C208.78 26.0823 208.916 25.4205 208.981 25.1024C208.993 25.0424 209.005 24.9829 209.019 24.9271C209.032 24.8779 209.049 24.8252 209.065 24.7703C209.161 24.4543 209.293 24.0218 209.075 23.6383C208.993 23.4946 208.896 23.3827 208.811 23.2844C208.764 23.2308 208.718 23.1792 208.68 23.1222C208.356 22.6348 208.192 22.0249 208.192 21.3095C208.192 20.3709 208.402 19.5208 208.833 18.7108C209.616 17.2416 210.915 16.3141 212.59 16.0283C213.543 15.8666 214.654 15.9343 215.488 16.2048C216.249 16.4523 216.897 16.89 217.362 17.4712C217.855 18.0863 218.136 18.8665 218.198 19.7906C218.239 20.3804 218.186 20.9742 218.143 21.3688C217.974 22.8874 217.538 24.1098 216.846 25.0028C216.28 25.7355 215.669 26.1029 214.978 26.1265C214.533 26.144 214.201 26.0519 213.9 25.8338C213.616 25.6288 213.448 25.3762 213.368 25.0396C213.278 24.6553 213.387 24.2568 213.502 23.8349L213.521 23.7675C213.622 23.3962 213.727 23.0571 213.831 22.7233C213.993 22.1973 214.162 21.6534 214.301 21.0227C214.459 20.3105 214.479 19.7355 214.366 19.2652C214.225 18.6817 213.916 18.2446 213.446 17.9657C212.948 17.6715 212.243 17.615 211.651 17.8215C210.769 18.1266 210.097 18.9381 209.805 20.0481C209.658 20.6119 209.615 21.2037 209.679 21.8059C209.728 22.2781 209.832 22.707 210.024 23.2252C210.018 23.2477 210.011 23.2713 210.004 23.2942C209.99 23.3405 209.978 23.385 209.968 23.4234C209.761 24.3007 209.559 25.166 209.358 26.0298C209.167 26.8499 208.975 27.6687 208.78 28.4957L208.736 28.6811C208.536 29.5237 208.33 30.3949 208.282 31.4351L208.26 31.8696C208.218 32.6776 208.175 33.5134 208.282 34.2866C208.303 34.4374 208.35 34.7757 208.679 34.8939C208.777 34.9687 208.871 35 208.963 35C209.238 35 209.483 34.717 209.691 34.477C210.37 33.6942 210.948 32.7059 211.457 31.4561C211.685 30.8971 211.836 30.2957 211.982 29.7139L212.07 29.3672C212.176 28.9529 212.281 28.533 212.384 28.1176L212.391 28.09C212.583 28.2601 212.804 28.4137 213.061 28.5561C213.604 28.861 214.217 29.0386 214.882 29.0838C215.506 29.1267 216.162 29.0457 216.886 28.8351C217.436 28.6761 217.963 28.4346 218.453 28.1172C220.208 26.9783 221.404 24.9859 221.822 22.5073C221.947 21.7667 222 21.1713 222 20.5166C222 19.7612 221.911 19.075 221.736 18.4777ZM220.968 22.3595C220.592 24.5918 219.533 26.3741 217.986 27.378C217.568 27.6495 217.118 27.8556 216.648 27.9914C216.022 28.1737 215.462 28.2446 214.941 28.2084C214.395 28.1712 213.917 28.0338 213.478 27.7873C213.039 27.5437 212.754 27.279 212.554 26.9297L212.023 26.0005L211.544 27.9034C211.441 28.3164 211.338 28.7337 211.232 29.1459L211.143 29.4977C210.998 30.0749 210.861 30.6201 210.657 31.121C210.201 32.2408 209.692 33.1265 209.103 33.8249C209.057 33.2304 209.091 32.5637 209.125 31.9156L209.147 31.476C209.191 30.5188 209.388 29.6888 209.578 28.8863L209.622 28.6999C209.818 27.8723 210.009 27.0524 210.2 26.2316C210.402 25.3687 210.603 24.5044 210.81 23.6291C210.816 23.6044 210.825 23.5755 210.834 23.5453C210.886 23.3684 210.94 23.1856 210.867 22.9998C210.681 22.5176 210.583 22.133 210.539 21.7134C210.487 21.2176 210.522 20.7332 210.643 20.2735C210.858 19.4519 211.328 18.8608 211.932 18.6517C212.082 18.5996 212.239 18.5773 212.389 18.5773C212.635 18.5773 212.862 18.6369 213.009 18.7234C213.272 18.8794 213.44 19.1245 213.524 19.4737C213.605 19.8055 213.582 20.2623 213.457 20.8311C213.325 21.4256 213.169 21.9282 213.005 22.4604C212.898 22.8034 212.79 23.152 212.686 23.5337L212.668 23.6004C212.535 24.0871 212.384 24.6386 212.526 25.2431C212.655 25.7905 212.94 26.2173 213.396 26.5478C213.85 26.8765 214.383 27.0235 215.007 27.0035C215.956 26.9712 216.804 26.4801 217.527 25.5446C218.32 24.5216 218.817 23.1498 219.003 21.4663C219.05 21.0372 219.108 20.3905 219.063 19.7302C218.987 18.6226 218.642 17.6767 218.035 16.9185C217.464 16.2046 216.675 15.6688 215.752 15.3693C214.795 15.058 213.528 14.9786 212.446 15.1628C210.498 15.4953 208.985 16.5778 208.071 18.2939C207.57 19.2352 207.326 20.2216 207.326 21.3095C207.326 22.2027 207.54 22.9772 207.961 23.6117C208.019 23.6994 208.088 23.7812 208.16 23.8637C208.225 23.9382 208.286 24.0085 208.323 24.0738C208.349 24.1454 208.274 24.3928 208.238 24.5117C208.217 24.5788 208.198 24.6433 208.182 24.7035C208.164 24.7735 208.148 24.8485 208.133 24.9242C208.116 25.0068 208.09 25.1343 208.063 25.2044C207.96 25.1637 207.773 25.0593 207.671 24.983C206.893 24.3959 206.608 24.0183 206.217 23.0605C205.924 22.3407 205.779 20.916 205.924 20.1841C206.086 19.364 206.432 18.32 206.711 17.8073C207.338 16.6584 208.247 15.7282 209.413 15.0428C210.336 14.5004 211.342 14.1559 212.491 13.9894C212.899 13.9294 213.332 13.906 213.777 13.8855C214.925 13.8309 216.127 14.0543 217.163 14.5143C218.066 14.9166 218.827 15.4606 219.486 16.1779C220.151 16.9001 220.615 17.7339 220.905 18.7273C221.057 19.2438 221.134 19.846 221.134 20.5166C221.134 21.1191 221.085 21.6703 220.968 22.3595Z" fill="black"/>
</g>
<g id="VK">
<circle id="Ellipse 7" cx="119" cy="24" r="23.5" stroke="black"/>
<path id="vk" d="M132.125 32.9531H128.187C127.719 32.9531 127.25 32.6719 126.969 32.2969L126.594 31.6875C126.359 31.4063 124.203 28.9219 122.891 28.125C122.375 27.8438 122.187 27.8906 122.187 27.8906C122.187 27.8906 122.141 28.0313 122.141 28.0781V30.5625C122.141 31.875 121.062 32.9062 119.797 32.9062H118.859C118.625 32.9062 113.375 32.8125 109.203 26.5781C105.922 21.7031 104.844 18.5156 104.469 16.6875C104.375 16.2656 104.516 15.8437 104.75 15.5156C105.031 15.1875 105.406 15 105.828 15H109.156C109.766 15 110.281 15.375 110.469 15.9844C110.844 17.0625 111.781 19.8281 112.906 21.6094C114.547 24.3281 115.203 24.5625 115.391 24.5625C115.531 24.3281 115.484 23.3906 115.484 22.7813C115.484 22.5 115.484 22.2656 115.484 21.9844C115.484 21.7969 115.484 21.5625 115.484 21.3281C115.484 20.1562 115.531 18.5625 115.062 17.8125L114.125 16.4531C113.937 16.1719 113.891 15.7969 114.078 15.4688C114.219 15.1406 114.547 14.9531 114.922 14.9531H120.266C121.062 14.9531 121.672 15.6094 121.672 16.3594V23.1094C121.672 23.1563 121.719 23.2031 121.719 23.2031C121.719 23.2031 121.906 23.2031 122.422 22.7344C123.5 21.6562 124.859 19.6406 126.219 16.875L126.687 15.7969C126.922 15.2813 127.437 14.9531 128 14.9531H131.469C131.937 14.9531 132.359 15.1875 132.641 15.5625C132.922 15.9375 132.969 16.4531 132.781 16.875L132.406 17.8594V17.9063C132.359 18 131.094 20.4844 129.781 22.3125C128.75 23.7188 128.328 24.375 128.422 24.6094C128.516 24.75 129.125 25.4531 129.734 26.0156C130.859 27.1875 132.266 28.6875 132.781 29.6719C133.016 30.0938 133.25 30.4688 133.391 30.7969C133.625 31.2188 133.625 31.7344 133.344 32.2031C133.062 32.7188 132.641 32.9531 132.125 32.9531ZM122.281 26.9531C122.609 26.9531 122.984 27.0938 123.406 27.3281C124.953 28.2188 127.297 30.9844 127.391 31.125L127.437 31.1719L127.812 31.7812C127.906 31.9219 128.047 32.0156 128.234 32.0156H132.125C132.359 32.0156 132.5 31.875 132.547 31.7812C132.594 31.7344 132.687 31.5469 132.547 31.3125C132.359 30.9844 132.172 30.6094 131.937 30.1875C131.469 29.3438 130.062 27.8438 129.031 26.7188C128 25.5938 127.625 25.2188 127.531 24.9844C127.25 24.2812 127.672 23.7188 129.031 21.8438C130.25 20.1563 131.422 17.8594 131.562 17.5781L131.937 16.5938C131.984 16.4531 131.984 16.2656 131.891 16.1719C131.797 16.0313 131.656 15.9844 131.516 15.9844H128.047C127.859 15.9844 127.672 16.0781 127.625 16.2656L127.156 17.3906C126.125 19.4063 124.625 22.0781 123.172 23.5312C122.562 24.1406 122 24.3281 121.531 24.1875C120.969 24 120.828 23.3906 120.828 23.3438C120.828 23.2969 120.828 23.2969 120.828 23.25V16.4531C120.828 16.1719 120.594 15.9844 120.359 15.9844H114.922L115.859 17.3438C116.469 18.3281 116.469 20.0625 116.422 21.4219C116.422 21.6563 116.422 21.8438 116.422 22.0312C116.422 22.2656 116.422 22.5469 116.422 22.7813C116.469 24.0938 116.469 25.3125 115.625 25.5C114.687 25.6875 113.703 24.7031 112.109 22.125C111.031 20.2969 110.094 17.7188 109.625 16.3125C109.578 16.125 109.391 15.9844 109.156 15.9844H105.875C105.734 15.9844 105.594 16.0313 105.5 16.1719C105.406 16.2656 105.406 16.4063 105.406 16.5469C105.734 18.2813 106.812 21.3281 110 26.1094C113.891 31.9219 118.812 32.0156 118.859 32.0156H119.797C120.594 32.0156 121.203 31.3594 121.203 30.6094V28.125C121.203 28.0781 121.203 27.4219 121.719 27.0938C121.906 27 122.094 26.9531 122.281 26.9531Z" fill="black"/>
</g>
<g id="YouTube">
<circle id="Ellipse 4" cx="24" cy="24" r="23.5" stroke="black"/>
<g id="youtube">
<path id="Vector" d="M31.8296 14H16.1703C13.3193 14 11 16.436 11 19.4302V28.5698C11 31.564 13.3193 34 16.1703 34H31.8296C34.6806 34 37 31.564 37 28.5698V19.4302C37 16.436 34.6806 14 31.8296 14ZM35.9388 28.5698C35.9388 30.9512 34.0954 32.8889 31.8296 32.8889H16.1703C13.9046 32.8889 12.0612 30.9512 12.0612 28.5698V19.4302C12.0612 17.0488 13.9046 15.1111 16.1703 15.1111H31.8296C34.0954 15.1111 35.9388 17.0488 35.9388 19.4302V28.5698Z" fill="black"/>
<path id="Vector_2" d="M28.7012 23.7991L21.3496 19.2906C21.1863 19.1906 20.9827 19.1889 20.8176 19.2879C20.6526 19.3869 20.5508 19.5708 20.5508 19.7699V28.7858C20.5508 28.9849 20.6526 29.1688 20.8173 29.2678C20.8992 29.3169 20.9904 29.3414 21.0814 29.3414C21.1741 29.3414 21.2666 29.3159 21.3496 29.2652L28.7012 24.7578C28.8636 24.6582 28.9636 24.4756 28.9636 24.2784C28.9636 24.0812 28.8639 23.8987 28.7012 23.7991ZM21.612 27.8166V20.7392L27.3829 24.2784L21.612 27.8166Z" fill="black"/>
</g>
</g>
</g>
</svg>
